{
    "asset" : {
        "generator" : "Khronos glTF Blender I/O v3.2.43",
        "version" : "2.0"
    },
    "scene" : 0,
    "scenes" : [
        {
            "name" : "Scene",
            "nodes" : [
                0
            ]
        }
    ],
    "nodes" : [
        {
            "mesh" : 0,
            "name" : "10778_Toilet_V2",
            "scale" : [
                0.13748393952846527,
                0.13748393952846527,
                0.13748393952846527
            ],
            "translation" : [
                0,
                3.384131669998169,
                0
            ]
        }
    ],
    "materials" : [
        {
            "doubleSided" : true,
            "name" : "_10778_Toilet_V201___Default",
            "pbrMetallicRoughness" : {
                "baseColorTexture" : {
                    "index" : 0
                },
                "metallicFactor" : 0,
                "roughnessFactor" : 0.7741681933403015
            }
        }
    ],
    "meshes" : [
        {
            "name" : "10778_Toilet_V2",
            "primitives" : [
                {
                    "attributes" : {
                        "POSITION" : 0,
                        "NORMAL" : 1,
                        "TEXCOORD_0" : 2
                    },
                    "indices" : 3,
                    "material" : 0
                }
            ]
        }
    ],
    "textures" : [
        {
            "sampler" : 0,
            "source" : 0
        }
    ],
    "images" : [
        {
            "bufferView" : 4,
            "mimeType" : "image/jpeg",
            "name" : "Toilet"
        }
    ],
    "accessors" : [
        {
            "bufferView" : 0,
            "componentType" : 5126,
            "count" : 27906,
            "max" : [
                2.162100076675415,
                14.161499977111816,
                9.54640007019043
            ],
            "min" : [
                -12.618800163269043,
                -19.925500869750977,
                -15.896699905395508
            ],
            "type" : "VEC3"
        },
        {
            "bufferView" : 1,
            "componentType" : 5126,
            "count" : 27906,
            "type" : "VEC3"
        },
        {
            "bufferView" : 2,
            "componentType" : 5126,
            "count" : 27906,
            "type" : "VEC2"
        },
        {
            "bufferView" : 3,
            "componentType" : 5123,
            "count" : 141888,
            "type" : "SCALAR"
        }
    ],
    "bufferViews" : [
        {
            "buffer" : 0,
            "byteLength" : 334872,
            "byteOffset" : 0
        },
        {
            "buffer" : 0,
            "byteLength" : 334872,
            "byteOffset" : 334872
        },
        {
            "buffer" : 0,
            "byteLength" : 223248,
            "byteOffset" : 669744
        },
        {
            "buffer" : 0,
            "byteLength" : 283776,
            "byteOffset" : 892992
        },
        {
            "buffer" : 0,
            "byteLength" : 328693,
            "byteOffset" : 1176768
        }
    ],
    "samplers" : [
        {
            "magFilter" : 9729,
            "minFilter" : 9987
        }
    ],
    "buffers" : [
        {
            "byteLength" : 1505464,
            "uri" : "data:application/octet-stream;base64,"
        }
    ]
}
