{
    "asset" : {
        "generator" : "Khronos glTF Blender I/O v3.4.50",
        "version" : "2.0"
    },
    "scene" : 0,
    "scenes" : [
        {
            "name" : "Scene",
            "nodes" : [
                0
            ]
        }
    ],
    "nodes" : [
        {
            "mesh" : 0,
            "name" : "RAM Stick",
            "scale" : [
                61.09889602661133,
                61.09889602661133,
                61.09889602661133
            ],
            "translation" : [
                0,
                0.9268451929092407,
                0
            ]
        }
    ],
    "materials" : [
        {
            "doubleSided" : true,
            "name" : "RAM",
            "pbrMetallicRoughness" : {
                "baseColorTexture" : {
                    "index" : 0
                },
                "metallicFactor" : 0,
                "metallicRoughnessTexture" : {
                    "index" : 1
                }
            }
        }
    ],
    "meshes" : [
        {
            "name" : "Plane.021",
            "primitives" : [
                {
                    "attributes" : {
                        "POSITION" : 0,
                        "TEXCOORD_0" : 1,
                        "NORMAL" : 2
                    },
                    "indices" : 3,
                    "material" : 0
                }
            ]
        }
    ],
    "textures" : [
        {
            "sampler" : 0,
            "source" : 0
        },
        {
            "sampler" : 0,
            "source" : 1
        }
    ],
    "images" : [
        {
            "bufferView" : 4,
            "mimeType" : "image/png",
            "name" : "RAM_COL"
        },
        {
            "bufferView" : 5,
            "mimeType" : "image/png",
            "name" : "Image"
        }
    ],
    "accessors" : [
        {
            "bufferView" : 0,
            "componentType" : 5126,
            "count" : 2234,
            "max" : [
                0.07158775627613068,
                0.00302637810818851,
                0.02049015276134014
            ],
            "min" : [
                -0.07066503167152405,
                -0.00302637810818851,
                -0.013413273729383945
            ],
            "type" : "VEC3"
        },
        {
            "bufferView" : 1,
            "componentType" : 5126,
            "count" : 2234,
            "type" : "VEC2"
        },
        {
            "bufferView" : 2,
            "componentType" : 5126,
            "count" : 2234,
            "type" : "VEC3"
        },
        {
            "bufferView" : 3,
            "componentType" : 5123,
            "count" : 3414,
            "type" : "SCALAR"
        }
    ],
    "bufferViews" : [
        {
            "buffer" : 0,
            "byteLength" : 26808,
            "byteOffset" : 0,
            "target" : 34962
        },
        {
            "buffer" : 0,
            "byteLength" : 17872,
            "byteOffset" : 26808,
            "target" : 34962
        },
        {
            "buffer" : 0,
            "byteLength" : 26808,
            "byteOffset" : 44680,
            "target" : 34962
        },
        {
            "buffer" : 0,
            "byteLength" : 6828,
            "byteOffset" : 71488,
            "target" : 34963
        },
        {
            "buffer" : 0,
            "byteLength" : 1483778,
            "byteOffset" : 78316
        },
        {
            "buffer" : 0,
            "byteLength" : 90,
            "byteOffset" : 1562096
        }
    ],
    "samplers" : [
        {
            "magFilter" : 9729,
            "minFilter" : 9987
        }
    ],
    "buffers" : [
        {
            "byteLength" : 1562188,
            "uri" : "data:application/octet-stream;base64,"
        }
    ]
}
