{
    "asset" : {
        "generator" : "Khronos glTF Blender I/O v3.2.43",
        "version" : "2.0"
    },
    "scene" : 0,
    "scenes" : [
        {
            "name" : "Scene",
            "nodes" : [
                0
            ]
        }
    ],
    "nodes" : [
        {
            "mesh" : 0,
            "name" : "Cube.002",
            "scale" : [
                1,
                0.5792422294616699,
                1
            ],
            "translation" : [
                -0.09464871883392334,
                1.115409016609192,
                -0.0002896523801609874
            ]
        }
    ],
    "materials" : [
        {
            "doubleSided" : true,
            "name" : "Material.010",
            "pbrMetallicRoughness" : {
                "baseColorFactor" : [
                    0.10135311633348465,
                    0.29815733432769775,
                    0,
                    1
                ],
                "metallicFactor" : 0,
                "roughnessFactor" : 0.5
            }
        }
    ],
    "meshes" : [
        {
            "name" : "Mesh",
            "primitives" : [
                {
                    "attributes" : {
                        "POSITION" : 0,
                        "NORMAL" : 1
                    },
                    "indices" : 2,
                    "material" : 0
                }
            ]
        }
    ],
    "accessors" : [
        {
            "bufferView" : 0,
            "componentType" : 5126,
            "count" : 20870,
            "max" : [
                2.0134849548339844,
                -0.3999728858470917,
                0.0699300542473793
            ],
            "min" : [
                -1.630051851272583,
                -2.313749313354492,
                -0.060258083045482635
            ],
            "type" : "VEC3"
        },
        {
            "bufferView" : 1,
            "componentType" : 5126,
            "count" : 20870,
            "type" : "VEC3"
        },
        {
            "bufferView" : 2,
            "componentType" : 5123,
            "count" : 31308,
            "type" : "SCALAR"
        }
    ],
    "bufferViews" : [
        {
            "buffer" : 0,
            "byteLength" : 250440,
            "byteOffset" : 0
        },
        {
            "buffer" : 0,
            "byteLength" : 250440,
            "byteOffset" : 250440
        },
        {
            "buffer" : 0,
            "byteLength" : 62616,
            "byteOffset" : 500880
        }
    ],
    "buffers" : [
        {
            "byteLength" : 563496,
            "uri" : "data:application/octet-stream;base64,"
        }
    ]
}
