{
    "asset" : {
        "generator" : "Khronos glTF Blender I/O v3.2.43",
        "version" : "2.0"
    },
    "scene" : 0,
    "scenes" : [
        {
            "name" : "Scene",
            "nodes" : [
                0
            ]
        }
    ],
    "nodes" : [
        {
            "mesh" : 0,
            "name" : "Cube.002",
            "scale" : [
                1,
                0.5792422294616699,
                1
            ],
            "translation" : [
                -0.09464871883392334,
                1.115409016609192,
                -0.0002896523801609874
            ]
        }
    ],
    "materials" : [
        {
            "doubleSided" : true,
            "name" : "Material.010",
            "pbrMetallicRoughness" : {
                "baseColorFactor" : [
                    0.10135311633348465,
                    0.29815733432769775,
                    0,
                    1
                ],
                "metallicFactor" : 0,
                "roughnessFactor" : 0.5
            }
        }
    ],
    "meshes" : [
        {
            "name" : "Mesh",
            "primitives" : [
                {
                    "attributes" : {
                        "POSITION" : 0,
                        "NORMAL" : 1
                    },
                    "indices" : 2,
                    "material" : 0
                }
            ]
        }
    ],
    "accessors" : [
        {
            "bufferView" : 0,
            "componentType" : 5126,
            "count" : 7272,
            "max" : [
                1.3540501594543457,
                4.485220909118652,
                0.07084672152996063
            ],
            "min" : [
                -1.03671395778656,
                -0.47876718640327454,
                -0.059889111667871475
            ],
            "type" : "VEC3"
        },
        {
            "bufferView" : 1,
            "componentType" : 5126,
            "count" : 7272,
            "type" : "VEC3"
        },
        {
            "bufferView" : 2,
            "componentType" : 5123,
            "count" : 10908,
            "type" : "SCALAR"
        }
    ],
    "bufferViews" : [
        {
            "buffer" : 0,
            "byteLength" : 87264,
            "byteOffset" : 0
        },
        {
            "buffer" : 0,
            "byteLength" : 87264,
            "byteOffset" : 87264
        },
        {
            "buffer" : 0,
            "byteLength" : 21816,
            "byteOffset" : 174528
        }
    ],
    "buffers" : [
        {
            "byteLength" : 196344,
            "uri" : "data:application/octet-stream;base64,"
        }
    ]
}
